<?xml version="1.0" standalone="no"?>
<!DOCTYPE svg PUBLIC "-//W3C//DTD SVG 20010904//EN"
 "http://www.w3.org/TR/2001/REC-SVG-20010904/DTD/svg10.dtd">
<svg version="1.0" xmlns="http://www.w3.org/2000/svg"
 width="225.000000pt" height="225.000000pt" viewBox="0 0 225.000000 225.000000"
 preserveAspectRatio="xMidYMid meet">
<metadata>
Created by potrace 1.14, written by Peter Selinger 2001-2017
</metadata>
<g transform="translate(0.000000,225.000000) scale(0.100000,-0.100000)"
fill="#000000" stroke="none">
<path d="M950 2165 c-115 -19 -210 -51 -317 -105 -280 -141 -480 -391 -565
-703 -19 -70 -22 -108 -23 -262 0 -158 3 -191 24 -269 83 -315 289 -571 574
-711 423 -208 922 -125 1252 209 170 172 271 368 306 596 17 111 6 345 -21
445 -113 420 -457 731 -885 800 -107 18 -242 18 -345 0z m-16 -469 c54 -22 71
-55 96 -180 31 -161 17 -211 -70 -256 -21 -11 -41 -24 -44 -29 -3 -5 11 -42
31 -82 41 -83 181 -233 226 -244 19 -5 41 1 80 24 94 53 133 44 275 -66 134
-104 141 -145 47 -270 -83 -109 -87 -113 -144 -113 -73 0 -231 44 -323 90
-254 127 -429 338 -500 602 -39 146 -26 421 22 480 14 18 39 25 131 39 145 22
134 21 173 5z"/>
<path d="M749 1618 l-67 -10 -11 -57 c-39 -207 -9 -389 92 -571 57 -101 204
-248 312 -312 89 -53 232 -104 317 -114 l56 -6 61 77 c33 43 61 83 61 90 0 20
-29 48 -109 109 -99 76 -109 77 -197 30 l-73 -39 -48 25 c-107 55 -252 230
-298 359 -19 55 -10 72 61 113 75 42 80 57 53 187 -11 58 -26 112 -31 119 -12
14 -81 14 -179 0z"/>
</g>
</svg>
